<mxfile host="app.diagrams.net" agent="Mozilla/5.0 (Windows NT 10.0; Win64; x64) AppleWebKit/537.36 (KHTML, like Gecko) Chrome/133.0.0.0 Safari/537.36" version="26.0.16">
  <diagram id="vvyxE3RAeIdKedx-3ecH" name="PÃ¡gina-1">
    <mxGraphModel dx="993" dy="994" grid="1" gridSize="10" guides="1" tooltips="1" connect="1" arrows="1" fold="1" page="0" pageScale="1" pageWidth="827" pageHeight="1169" background="none" math="0" shadow="0">
      <root>
        <mxCell id="0" />
        <mxCell id="1" parent="0" />
        <mxCell id="node2" value="&lt;p style=&quot;margin:0px;margin-top:4px;text-align:center;&quot;&gt;&lt;b&gt;Burako&lt;/b&gt;&lt;/p&gt;&lt;hr size=&quot;1&quot;/&gt;&lt;p style=&quot;margin:0 0 0 4px;line-height:1.6;&quot;&gt;+ Burako(): &lt;/p&gt;&lt;hr size=&quot;1&quot;/&gt;&lt;p style=&quot;margin:0 0 0 4px;line-height:1.6;&quot;&gt;- estadoMensajeSistema: boolean&lt;br/&gt;- jugadores: ArrayList&amp;lt;IJugador&amp;gt;&lt;br/&gt;- mazo: Mazo&lt;br/&gt;- mensajeSistema: String&lt;br/&gt;- partidaGuardada: PartidaGuardada&lt;br/&gt;- pozo: Pozo&lt;br/&gt;- tableroEquipo1: Tablero&lt;br/&gt;- tableroEquipo2: Tablero&lt;br/&gt;- topPuntos: ArrayList&amp;lt;PuntosGuardados&amp;gt;&lt;/p&gt;&lt;hr size=&quot;1&quot;/&gt;&lt;p style=&quot;margin:0 0 0 4px;line-height:1.6;&quot;&gt;+ abandonarPartida(): void&lt;br/&gt;+ actualizarTopPuntos(PuntosGuardados): void&lt;br/&gt;+ agregarFichaJugadaExistente(int, String[], int): boolean&lt;br/&gt;+ agregarFichaPozo(int, int): void&lt;br/&gt;+ agregarNuevaJugada(int, String[]): boolean&lt;br/&gt;- armarJugada(int, String[]): ArrayList&amp;lt;Ficha&amp;gt;&lt;br/&gt;+ atrilVacio(int): boolean&lt;br/&gt;- borrarJugadaAtril(int, String[]): void&lt;br/&gt;+ calcularPuntos(int): void&lt;br/&gt;- calcularPuntosParciales(): void&lt;br/&gt;+ cambiarTurno(int): void&lt;br/&gt;+ cantidadFichasAtril(int, int): Integer&lt;br/&gt;+ cantidadFichasMazo(): Integer&lt;br/&gt;+ cantidadJuegosMesa(int): int&lt;br/&gt;+ cerrar(IObservadorRemoto, int): void&lt;br/&gt;+ comenzarPartida(): void&lt;br/&gt;- desconectarUsuario(IJugador): void&lt;br/&gt;+ deserializarPartida(): boolean&lt;br/&gt;+ deserializarPuntos(): String&lt;br/&gt;- enviarMensajeDelSistema(String, boolean): void&lt;br/&gt;+ ganador(): void&lt;br/&gt;+ getCantidadJugadores(): Integer&lt;br/&gt;+ getEstadoMensajeSistema(): boolean&lt;br/&gt;+ getFichas(int): ArrayList&amp;lt;IFicha&amp;gt;&lt;br/&gt;+ getIdCompaniero(int): Integer&lt;br/&gt;+ getJugadorOponente(int, int): String&lt;br/&gt;+ getJugadores(): String&lt;br/&gt;+ getMensajeSistema(): String&lt;br/&gt;+ hayJuegosMesa(int): Boolean&lt;br/&gt;+ idJugadorActual(): Integer&lt;br/&gt;+ isCanasta(int): Boolean&lt;br/&gt;+ isJugadorActual(int): boolean&lt;br/&gt;+ isMuertoTomado(int): boolean&lt;br/&gt;+ isPozoVacio(): boolean&lt;br/&gt;+ mostrarJuegosEnMesa(int, boolean): ArrayList&amp;lt;ArrayList&amp;lt;IFicha&amp;gt;&amp;gt;&lt;br/&gt;+ mostrarPozo(): ArrayList&amp;lt;IFicha&amp;gt;&lt;br/&gt;+ mostrarPuntos(): String&lt;br/&gt;+ mostrarPuntosParciales(int): int&lt;br/&gt;+ mostrarTurno(int): String&lt;br/&gt;+ nombreJugadorTurno(): String&lt;br/&gt;- puntosMuerto(): void&lt;br/&gt;+ recogerFichaMazo(int): void&lt;br/&gt;+ recogerPozo(int): void&lt;br/&gt;- repartirFichas(): void&lt;br/&gt;+ serializarPartida(): void&lt;br/&gt;+ serializarPuntos(): void&lt;br/&gt;+ setJugador(String): IJugador&lt;br/&gt;+ tomarMuerto(int): void&lt;/p&gt;" style="verticalAlign=top;align=left;overflow=fill;fontSize=14;fontFamily=Helvetica;html=1;rounded=0;shadow=0;comic=0;labelBackgroundColor=none;strokeWidth=1;fillColor=#E8F1FF;strokeColor=#7C8EBA;" parent="1" vertex="1">
          <mxGeometry x="1119" y="-233" width="457" height="1363" as="geometry" />
        </mxCell>
        <mxCell id="node11" value="&lt;p style=&quot;margin:0px;margin-top:4px;text-align:center;&quot;&gt;&lt;i&gt;&amp;lt;&amp;lt;enumeration&amp;gt;&amp;gt;&lt;/i&gt;&lt;br/&gt;&lt;b&gt;ColorFicha&lt;/b&gt;&lt;/p&gt;&lt;hr size=&quot;1&quot;/&gt;&lt;p style=&quot;margin:0 0 0 4px;line-height:1.6;&quot;&gt;+ ColorFicha(): &lt;/p&gt;&lt;hr size=&quot;1&quot;/&gt;&lt;p style=&quot;margin:0 0 0 4px;line-height:1.6;&quot;&gt;+ AMARILLO: &lt;br/&gt;+ AZUL: &lt;br/&gt;+ NEGRO: &lt;br/&gt;+ ROJO: &lt;/p&gt;&lt;hr size=&quot;1&quot;/&gt;&lt;p style=&quot;margin:0 0 0 4px;line-height:1.6;&quot;&gt;+ valueOf(String): ColorFicha&lt;br/&gt;+ values(): ColorFicha[]&lt;/p&gt;" style="verticalAlign=top;align=left;overflow=fill;fontSize=14;fontFamily=Helvetica;html=1;rounded=0;shadow=0;comic=0;labelBackgroundColor=none;strokeWidth=1;fillColor=#E8F1FF;strokeColor=#7C8EBA;" parent="1" vertex="1">
          <mxGeometry x="521" y="4513" width="212" height="237" as="geometry" />
        </mxCell>
        <mxCell id="node8" value="&lt;p style=&quot;margin:0px;margin-top:4px;text-align:center;&quot;&gt;&lt;i&gt;&amp;lt;&amp;lt;enumeration&amp;gt;&amp;gt;&lt;/i&gt;&lt;br/&gt;&lt;b&gt;Eventos&lt;/b&gt;&lt;/p&gt;&lt;hr size=&quot;1&quot;/&gt;&lt;p style=&quot;margin:0 0 0 4px;line-height:1.6;&quot;&gt;+ Eventos(): &lt;/p&gt;&lt;hr size=&quot;1&quot;/&gt;&lt;p style=&quot;margin:0 0 0 4px;line-height:1.6;&quot;&gt;+ ABANDONAR_PARTIDA: &lt;br/&gt;+ CAMBIO_FICHAS_ATRIL: &lt;br/&gt;+ CAMBIO_FICHAS_POZO: &lt;br/&gt;+ CAMBIO_JUGADAS_OPONENTE: &lt;br/&gt;+ CAMBIO_TURNO: &lt;br/&gt;+ CANTIDAD_FICHAS_ATRIL: &lt;br/&gt;+ CANTIDAD_FICHAS_MAZO: &lt;br/&gt;+ MOSTRAR_JUGADORES: &lt;br/&gt;+ NUEVO_MENSAJE: &lt;br/&gt;+ PARTIDA: &lt;br/&gt;+ PUNTAJE: &lt;br/&gt;+ TOMAR_MUERTO: &lt;/p&gt;&lt;hr size=&quot;1&quot;/&gt;&lt;p style=&quot;margin:0 0 0 4px;line-height:1.6;&quot;&gt;+ valueOf(String): Eventos&lt;br/&gt;+ values(): Eventos[]&lt;/p&gt;" style="verticalAlign=top;align=left;overflow=fill;fontSize=14;fontFamily=Helvetica;html=1;rounded=0;shadow=0;comic=0;labelBackgroundColor=none;strokeWidth=1;fillColor=#E8F1FF;strokeColor=#7C8EBA;" parent="1" vertex="1">
          <mxGeometry x="1623" y="261" width="248" height="419" as="geometry" />
        </mxCell>
        <mxCell id="node4" value="&lt;p style=&quot;margin:0px;margin-top:4px;text-align:center;&quot;&gt;&lt;b&gt;Ficha&lt;/b&gt;&lt;/p&gt;&lt;hr size=&quot;1&quot;/&gt;&lt;p style=&quot;margin:0 0 0 4px;line-height:1.6;&quot;&gt;+ Ficha(): &lt;/p&gt;&lt;hr size=&quot;1&quot;/&gt;&lt;p style=&quot;margin:0 0 0 4px;line-height:1.6;&quot;&gt;# color: ColorFicha&lt;br/&gt;# numeroFicha: Integer&lt;br/&gt;# numeroJugada: Integer&lt;br/&gt;# valorFicha: Integer&lt;/p&gt;&lt;hr size=&quot;1&quot;/&gt;&lt;p style=&quot;margin:0 0 0 4px;line-height:1.6;&quot;&gt;+ getColor(): ColorFicha&lt;br/&gt;+ getNumeroFicha(): Integer&lt;br/&gt;+ getNumeroJugada(): Integer&lt;br/&gt;+ getValorFicha(): Integer&lt;br/&gt;+ setNumeroJugada(Integer): void&lt;/p&gt;" style="verticalAlign=top;align=left;overflow=fill;fontSize=14;fontFamily=Helvetica;html=1;rounded=0;shadow=0;comic=0;labelBackgroundColor=none;strokeWidth=1;fillColor=#E8F1FF;strokeColor=#7C8EBA;" parent="1" vertex="1">
          <mxGeometry x="425" y="3979" width="245" height="271" as="geometry" />
        </mxCell>
        <mxCell id="node17" value="&lt;p style=&quot;margin:0px;margin-top:4px;text-align:center;&quot;&gt;&lt;b&gt;FichaComodin&lt;/b&gt;&lt;/p&gt;&lt;hr size=&quot;1&quot;/&gt;&lt;p style=&quot;margin:0 0 0 4px;line-height:1.6;&quot;&gt;+ FichaComodin(): &lt;/p&gt;&lt;hr size=&quot;1&quot;/&gt;&lt;p style=&quot;margin:0 0 0 4px;line-height:1.6;&quot;&gt;+ toString(): String&lt;/p&gt;" style="verticalAlign=top;align=left;overflow=fill;fontSize=14;fontFamily=Helvetica;html=1;rounded=0;shadow=0;comic=0;labelBackgroundColor=none;strokeWidth=1;fillColor=#E8F1FF;strokeColor=#7C8EBA;" parent="1" vertex="1">
          <mxGeometry x="365" y="3271" width="164" height="99" as="geometry" />
        </mxCell>
        <mxCell id="node3" value="&lt;p style=&quot;margin:0px;margin-top:4px;text-align:center;&quot;&gt;&lt;b&gt;FichaEstandar&lt;/b&gt;&lt;/p&gt;&lt;hr size=&quot;1&quot;/&gt;&lt;p style=&quot;margin:0 0 0 4px;line-height:1.6;&quot;&gt;+ FichaEstandar(ColorFicha, Integer): &lt;/p&gt;&lt;hr size=&quot;1&quot;/&gt;&lt;p style=&quot;margin:0 0 0 4px;line-height:1.6;&quot;&gt;+ toString(): String&lt;br/&gt;- valor(Integer): Integer&lt;/p&gt;" style="verticalAlign=top;align=left;overflow=fill;fontSize=14;fontFamily=Helvetica;html=1;rounded=0;shadow=0;comic=0;labelBackgroundColor=none;strokeWidth=1;fillColor=#E8F1FF;strokeColor=#7C8EBA;" parent="1" vertex="1">
          <mxGeometry x="474" y="3560" width="266" height="120" as="geometry" />
        </mxCell>
        <mxCell id="node6" value="&lt;p style=&quot;margin:0px;margin-top:4px;text-align:center;&quot;&gt;&lt;i&gt;&amp;lt;&amp;lt;interface&amp;gt;&amp;gt;&lt;/i&gt;&lt;br/&gt;&lt;b&gt;IBurako&lt;/b&gt;&lt;/p&gt;&lt;hr size=&quot;1&quot;/&gt;&lt;p style=&quot;margin:0 0 0 4px;line-height:1.6;&quot;&gt;+ abandonarPartida(): void&lt;br/&gt;+ agregarFichaJugadaExistente(int, String[], int): boolean&lt;br/&gt;+ agregarFichaPozo(int, int): void&lt;br/&gt;+ agregarNuevaJugada(int, String[]): boolean&lt;br/&gt;+ atrilVacio(int): boolean&lt;br/&gt;+ calcularPuntos(int): void&lt;br/&gt;+ cambiarTurno(int): void&lt;br/&gt;+ cantidadFichasAtril(int, int): Integer&lt;br/&gt;+ cantidadFichasMazo(): Integer&lt;br/&gt;+ cantidadJuegosMesa(int): int&lt;br/&gt;+ cerrar(IObservadorRemoto, int): void&lt;br/&gt;+ comenzarPartida(): void&lt;br/&gt;+ deserializarPartida(): boolean&lt;br/&gt;+ deserializarPuntos(): String&lt;br/&gt;+ getCantidadJugadores(): Integer&lt;br/&gt;+ getEstadoMensajeSistema(): boolean&lt;br/&gt;+ getFichas(int): ArrayList&amp;lt;IFicha&amp;gt;&lt;br/&gt;+ getIdCompaniero(int): Integer&lt;br/&gt;+ getJugadorOponente(int, int): String&lt;br/&gt;+ getJugadores(): String&lt;br/&gt;+ getMensajeSistema(): String&lt;br/&gt;+ hayJuegosMesa(int): Boolean&lt;br/&gt;+ idJugadorActual(): Integer&lt;br/&gt;+ isCanasta(int): Boolean&lt;br/&gt;+ isJugadorActual(int): boolean&lt;br/&gt;+ isMuertoTomado(int): boolean&lt;br/&gt;+ isPozoVacio(): boolean&lt;br/&gt;+ mostrarJuegosEnMesa(int, boolean): ArrayList&amp;lt;ArrayList&amp;lt;IFicha&amp;gt;&amp;gt;&lt;br/&gt;+ mostrarPozo(): ArrayList&amp;lt;IFicha&amp;gt;&lt;br/&gt;+ mostrarPuntos(): String&lt;br/&gt;+ mostrarPuntosParciales(int): int&lt;br/&gt;+ mostrarTurno(int): String&lt;br/&gt;+ nombreJugadorTurno(): String&lt;br/&gt;+ recogerFichaMazo(int): void&lt;br/&gt;+ recogerPozo(int): void&lt;br/&gt;+ serializarPartida(): void&lt;br/&gt;+ setJugador(String): IJugador&lt;br/&gt;+ tomarMuerto(int): void&lt;/p&gt;" style="verticalAlign=top;align=left;overflow=fill;fontSize=14;fontFamily=Helvetica;html=1;rounded=0;shadow=0;comic=0;labelBackgroundColor=none;strokeWidth=1;fillColor=#E8F1FF;strokeColor=#7C8EBA;" parent="1" vertex="1">
          <mxGeometry x="1399" y="1238" width="457" height="902" as="geometry" />
        </mxCell>
        <mxCell id="node9" value="&lt;p style=&quot;margin:0px;margin-top:4px;text-align:center;&quot;&gt;&lt;i&gt;&amp;lt;&amp;lt;interface&amp;gt;&amp;gt;&lt;/i&gt;&lt;br/&gt;&lt;b&gt;IFicha&lt;/b&gt;&lt;/p&gt;&lt;hr size=&quot;1&quot;/&gt;&lt;p style=&quot;margin:0 0 0 4px;line-height:1.6;&quot;&gt;+ getColor(): ColorFicha&lt;br/&gt;+ getNumeroFicha(): Integer&lt;br/&gt;+ getNumeroJugada(): Integer&lt;br/&gt;+ getValorFicha(): Integer&lt;br/&gt;+ toString(): String&lt;/p&gt;" style="verticalAlign=top;align=left;overflow=fill;fontSize=14;fontFamily=Helvetica;html=1;rounded=0;shadow=0;comic=0;labelBackgroundColor=none;strokeWidth=1;fillColor=#E8F1FF;strokeColor=#7C8EBA;" parent="1" vertex="1">
          <mxGeometry x="378" y="4337" width="219" height="163" as="geometry" />
        </mxCell>
        <mxCell id="node10" value="&lt;p style=&quot;margin:0px;margin-top:4px;text-align:center;&quot;&gt;&lt;i&gt;&amp;lt;&amp;lt;interface&amp;gt;&amp;gt;&lt;/i&gt;&lt;br/&gt;&lt;b&gt;IJugador&lt;/b&gt;&lt;/p&gt;&lt;hr size=&quot;1&quot;/&gt;&lt;p style=&quot;margin:0 0 0 4px;line-height:1.6;&quot;&gt;+ addAtril(ArrayList&amp;lt;Ficha&amp;gt;): void&lt;br/&gt;+ addFichaAtril(Ficha): void&lt;br/&gt;+ atrilIsEmpty(): boolean&lt;br/&gt;+ calcularPuntosAtril(): void&lt;br/&gt;+ getAtril(): ArrayList&amp;lt;Ficha&amp;gt;&lt;br/&gt;+ getCompanieroId(): Integer&lt;br/&gt;+ getId(): int&lt;br/&gt;+ getNombre(): String&lt;br/&gt;+ getPuntos(): Integer&lt;br/&gt;+ isTomoMuerto(): boolean&lt;br/&gt;+ isTurno(): boolean&lt;br/&gt;+ removeFichaAtril(int): Ficha&lt;br/&gt;+ reset(): void&lt;br/&gt;+ setCompanieroId(int): void&lt;br/&gt;+ setPuntos(int): void&lt;br/&gt;+ setTomoMuerto(boolean): void&lt;br/&gt;+ setTurno(boolean): void&lt;/p&gt;" style="verticalAlign=top;align=left;overflow=fill;fontSize=14;fontFamily=Helvetica;html=1;rounded=0;shadow=0;comic=0;labelBackgroundColor=none;strokeWidth=1;fillColor=#E8F1FF;strokeColor=#7C8EBA;" parent="1" vertex="1">
          <mxGeometry x="1026" y="3099" width="242" height="431" as="geometry" />
        </mxCell>
        <mxCell id="node7" value="&lt;p style=&quot;margin:0px;margin-top:4px;text-align:center;&quot;&gt;&lt;i&gt;&amp;lt;&amp;lt;interface&amp;gt;&amp;gt;&lt;/i&gt;&lt;br/&gt;&lt;b&gt;ITablero&lt;/b&gt;&lt;/p&gt;&lt;hr size=&quot;1&quot;/&gt;&lt;p style=&quot;margin:0 0 0 4px;line-height:1.6;&quot;&gt;+ agregarJugadores(IJugador): void&lt;br/&gt;+ getJugadaEnMesa(): ArrayList&amp;lt;ArrayList&amp;lt;Ficha&amp;gt;&amp;gt;&lt;br/&gt;+ getJugadores(): ArrayList&amp;lt;IJugador&amp;gt;&lt;br/&gt;+ isVacio(): boolean&lt;br/&gt;+ mostrarJuegosEnMesa(): ArrayList&amp;lt;ArrayList&amp;lt;IFicha&amp;gt;&amp;gt;&lt;br/&gt;+ mostrarPuntajeJugadores(): String&lt;br/&gt;+ restarPuntos(int): void&lt;br/&gt;+ sizeJugadaEnMesa(): int&lt;br/&gt;+ sumarPuntos(int): void&lt;br/&gt;+ verificarJugadaExistente(ArrayList&amp;lt;Ficha&amp;gt;, int): boolean&lt;br/&gt;+ verificarJugadaNueva(ArrayList&amp;lt;Ficha&amp;gt;): boolean&lt;/p&gt;" style="verticalAlign=top;align=left;overflow=fill;fontSize=14;fontFamily=Helvetica;html=1;rounded=0;shadow=0;comic=0;labelBackgroundColor=none;strokeWidth=1;fillColor=#E8F1FF;strokeColor=#7C8EBA;" parent="1" vertex="1">
          <mxGeometry x="1472" y="3168" width="390" height="302" as="geometry" />
        </mxCell>
        <mxCell id="node15" value="&lt;p style=&quot;margin:0px;margin-top:4px;text-align:center;&quot;&gt;&lt;b&gt;Jugador&lt;/b&gt;&lt;/p&gt;&lt;hr size=&quot;1&quot;/&gt;&lt;p style=&quot;margin:0 0 0 4px;line-height:1.6;&quot;&gt;+ Jugador(String): &lt;/p&gt;&lt;hr size=&quot;1&quot;/&gt;&lt;p style=&quot;margin:0 0 0 4px;line-height:1.6;&quot;&gt;- ID: int&lt;br/&gt;- atril: ArrayList&amp;lt;Ficha&amp;gt;&lt;br/&gt;- companieroId: Integer&lt;br/&gt;- id: int&lt;br/&gt;- nombre: String&lt;br/&gt;- puntos: Integer&lt;br/&gt;- tomoMuerto: boolean&lt;br/&gt;- turno: boolean&lt;/p&gt;&lt;hr size=&quot;1&quot;/&gt;&lt;p style=&quot;margin:0 0 0 4px;line-height:1.6;&quot;&gt;+ addAtril(ArrayList&amp;lt;Ficha&amp;gt;): void&lt;br/&gt;+ addFichaAtril(Ficha): void&lt;br/&gt;+ atrilIsEmpty(): boolean&lt;br/&gt;+ calcularPuntosAtril(): void&lt;br/&gt;+ getAtril(): ArrayList&amp;lt;Ficha&amp;gt;&lt;br/&gt;+ getCompanieroId(): Integer&lt;br/&gt;+ getId(): int&lt;br/&gt;+ getNombre(): String&lt;br/&gt;+ getPuntos(): Integer&lt;br/&gt;+ isTomoMuerto(): boolean&lt;br/&gt;+ isTurno(): boolean&lt;br/&gt;+ removeFichaAtril(int): Ficha&lt;br/&gt;+ reset(): void&lt;br/&gt;+ setCompanieroId(int): void&lt;br/&gt;+ setPuntos(int): void&lt;br/&gt;+ setTomoMuerto(boolean): void&lt;br/&gt;+ setTurno(boolean): void&lt;/p&gt;" style="verticalAlign=top;align=left;overflow=fill;fontSize=14;fontFamily=Helvetica;html=1;rounded=0;shadow=0;comic=0;labelBackgroundColor=none;strokeWidth=1;fillColor=#E8F1FF;strokeColor=#7C8EBA;" parent="1" vertex="1">
          <mxGeometry x="866" y="2275" width="242" height="631" as="geometry" />
        </mxCell>
        <mxCell id="node12" value="&lt;p style=&quot;margin:0px;margin-top:4px;text-align:center;&quot;&gt;&lt;b&gt;Mazo&lt;/b&gt;&lt;/p&gt;&lt;hr size=&quot;1&quot;/&gt;&lt;p style=&quot;margin:0 0 0 4px;line-height:1.6;&quot;&gt;+ Mazo(IJugador, IJugador, IJugador, IJugador): &lt;br/&gt;+ Mazo(IJugador, IJugador): &lt;/p&gt;&lt;hr size=&quot;1&quot;/&gt;&lt;p style=&quot;margin:0 0 0 4px;line-height:1.6;&quot;&gt;- mazo: PilaEstandar&lt;br/&gt;- muerto: ArrayList&amp;lt;PilaDeMuerto&amp;gt;&lt;/p&gt;&lt;hr size=&quot;1&quot;/&gt;&lt;p style=&quot;margin:0 0 0 4px;line-height:1.6;&quot;&gt;+ crearFichas(): ArrayList&amp;lt;Ficha&amp;gt;&lt;br/&gt;+ getMuerto(): ArrayList&amp;lt;PilaDeMuerto&amp;gt;&lt;br/&gt;+ recogerFichaMazo(): Ficha&lt;br/&gt;+ repartirAtril(ArrayList&amp;lt;Ficha&amp;gt;): ArrayList&amp;lt;Ficha&amp;gt;&lt;br/&gt;+ repartirMazo(ArrayList&amp;lt;Ficha&amp;gt;): void&lt;br/&gt;+ repartirMuerto(ArrayList&amp;lt;Ficha&amp;gt;): void&lt;br/&gt;+ sacarMuerto(): ArrayList&amp;lt;Ficha&amp;gt;&lt;br/&gt;+ size(): int&lt;/p&gt;" style="verticalAlign=top;align=left;overflow=fill;fontSize=14;fontFamily=Helvetica;html=1;rounded=0;shadow=0;comic=0;labelBackgroundColor=none;strokeWidth=1;fillColor=#E8F1FF;strokeColor=#7C8EBA;" parent="1" vertex="1">
          <mxGeometry x="437" y="2436" width="341" height="314" as="geometry" />
        </mxCell>
        <mxCell id="node0" value="&lt;p style=&quot;margin:0px;margin-top:4px;text-align:center;&quot;&gt;&lt;b&gt;PartidaGuardada&lt;/b&gt;&lt;/p&gt;&lt;hr size=&quot;1&quot;/&gt;&lt;p style=&quot;margin:0 0 0 4px;line-height:1.6;&quot;&gt;+ PartidaGuardada(Mazo, Pozo, ArrayList&amp;lt;IJugador&amp;gt;, Tablero, Tablero): &lt;/p&gt;&lt;hr size=&quot;1&quot;/&gt;&lt;p style=&quot;margin:0 0 0 4px;line-height:1.6;&quot;&gt;- jugadores: ArrayList&amp;lt;IJugador&amp;gt;&lt;br/&gt;- mazo: Mazo&lt;br/&gt;- pozo: Pozo&lt;br/&gt;- tableroEquipo1: Tablero&lt;br/&gt;- tableroEquipo2: Tablero&lt;/p&gt;&lt;hr size=&quot;1&quot;/&gt;&lt;p style=&quot;margin:0 0 0 4px;line-height:1.6;&quot;&gt;+ getJugadores(): ArrayList&amp;lt;IJugador&amp;gt;&lt;br/&gt;+ getMazo(): Mazo&lt;br/&gt;+ getPozo(): Pozo&lt;br/&gt;+ getTableroEquipo1(): Tablero&lt;br/&gt;+ getTableroEquipo2(): Tablero&lt;/p&gt;" style="verticalAlign=top;align=left;overflow=fill;fontSize=14;fontFamily=Helvetica;html=1;rounded=0;shadow=0;comic=0;labelBackgroundColor=none;strokeWidth=1;fillColor=#E8F1FF;strokeColor=#7C8EBA;" parent="1" vertex="1">
          <mxGeometry x="429" y="1547" width="437" height="293" as="geometry" />
        </mxCell>
        <mxCell id="node1" value="&lt;p style=&quot;margin:0px;margin-top:4px;text-align:center;&quot;&gt;&lt;b&gt;Pila&lt;/b&gt;&lt;/p&gt;&lt;hr size=&quot;1&quot;/&gt;&lt;p style=&quot;margin:0 0 0 4px;line-height:1.6;&quot;&gt;+ Pila(): &lt;/p&gt;&lt;hr size=&quot;1&quot;/&gt;&lt;p style=&quot;margin:0 0 0 4px;line-height:1.6;&quot;&gt;# pila: ArrayList&amp;lt;Ficha&amp;gt;&lt;/p&gt;&lt;hr size=&quot;1&quot;/&gt;&lt;p style=&quot;margin:0 0 0 4px;line-height:1.6;&quot;&gt;+ agregarFicha(Ficha): void&lt;br/&gt;+ isEmpty(): boolean&lt;br/&gt;+ size(): int&lt;/p&gt;" style="verticalAlign=top;align=left;overflow=fill;fontSize=14;fontFamily=Helvetica;html=1;rounded=0;shadow=0;comic=0;labelBackgroundColor=none;strokeWidth=1;fillColor=#E8F1FF;strokeColor=#7C8EBA;" parent="1" vertex="1">
          <mxGeometry x="666" y="3736" width="202" height="154" as="geometry" />
        </mxCell>
        <mxCell id="node5" value="&lt;p style=&quot;margin:0px;margin-top:4px;text-align:center;&quot;&gt;&lt;b&gt;PilaDeMuerto&lt;/b&gt;&lt;/p&gt;&lt;hr size=&quot;1&quot;/&gt;&lt;p style=&quot;margin:0 0 0 4px;line-height:1.6;&quot;&gt;+ PilaDeMuerto(): &lt;/p&gt;&lt;hr size=&quot;1&quot;/&gt;&lt;p style=&quot;margin:0 0 0 4px;line-height:1.6;&quot;&gt;+ getPilaDeMuerto(): ArrayList&amp;lt;Ficha&amp;gt;&lt;/p&gt;" style="verticalAlign=top;align=left;overflow=fill;fontSize=14;fontFamily=Helvetica;html=1;rounded=0;shadow=0;comic=0;labelBackgroundColor=none;strokeWidth=1;fillColor=#E8F1FF;strokeColor=#7C8EBA;" parent="1" vertex="1">
          <mxGeometry x="632" y="3271" width="270" height="99" as="geometry" />
        </mxCell>
        <mxCell id="node13" value="&lt;p style=&quot;margin:0px;margin-top:4px;text-align:center;&quot;&gt;&lt;b&gt;PilaEstandar&lt;/b&gt;&lt;/p&gt;&lt;hr size=&quot;1&quot;/&gt;&lt;p style=&quot;margin:0 0 0 4px;line-height:1.6;&quot;&gt;+ PilaEstandar(): &lt;/p&gt;&lt;hr size=&quot;1&quot;/&gt;&lt;p style=&quot;margin:0 0 0 4px;line-height:1.6;&quot;&gt;+ sacarFicha(): Ficha&lt;/p&gt;" style="verticalAlign=top;align=left;overflow=fill;fontSize=14;fontFamily=Helvetica;html=1;rounded=0;shadow=0;comic=0;labelBackgroundColor=none;strokeWidth=1;fillColor=#E8F1FF;strokeColor=#7C8EBA;" parent="1" vertex="1">
          <mxGeometry x="886" y="3571" width="162" height="99" as="geometry" />
        </mxCell>
        <mxCell id="node18" value="&lt;p style=&quot;margin:0px;margin-top:4px;text-align:center;&quot;&gt;&lt;b&gt;Pozo&lt;/b&gt;&lt;/p&gt;&lt;hr size=&quot;1&quot;/&gt;&lt;p style=&quot;margin:0 0 0 4px;line-height:1.6;&quot;&gt;+ Pozo(): &lt;/p&gt;&lt;hr size=&quot;1&quot;/&gt;&lt;p style=&quot;margin:0 0 0 4px;line-height:1.6;&quot;&gt;- pozo: ArrayList&amp;lt;Ficha&amp;gt;&lt;/p&gt;&lt;hr size=&quot;1&quot;/&gt;&lt;p style=&quot;margin:0 0 0 4px;line-height:1.6;&quot;&gt;+ agregarAlPozo(Ficha): void&lt;br/&gt;+ isEmpty(): boolean&lt;br/&gt;+ mostrarPozo(): ArrayList&amp;lt;IFicha&amp;gt;&lt;br/&gt;+ recogerPozo(): ArrayList&amp;lt;Ficha&amp;gt;&lt;/p&gt;" style="verticalAlign=top;align=left;overflow=fill;fontSize=14;fontFamily=Helvetica;html=1;rounded=0;shadow=0;comic=0;labelBackgroundColor=none;strokeWidth=1;fillColor=#E8F1FF;strokeColor=#7C8EBA;" parent="1" vertex="1">
          <mxGeometry x="1142" y="2505" width="250" height="171" as="geometry" />
        </mxCell>
        <mxCell id="node16" value="&lt;p style=&quot;margin:0px;margin-top:4px;text-align:center;&quot;&gt;&lt;b&gt;PuntosGuardados&lt;/b&gt;&lt;/p&gt;&lt;hr size=&quot;1&quot;/&gt;&lt;p style=&quot;margin:0 0 0 4px;line-height:1.6;&quot;&gt;+ PuntosGuardados(Integer, String): &lt;/p&gt;&lt;hr size=&quot;1&quot;/&gt;&lt;p style=&quot;margin:0 0 0 4px;line-height:1.6;&quot;&gt;- nombre: String&lt;br/&gt;- puntaje: Integer&lt;/p&gt;&lt;hr size=&quot;1&quot;/&gt;&lt;p style=&quot;margin:0 0 0 4px;line-height:1.6;&quot;&gt;+ getNombre(): String&lt;br/&gt;+ getPuntaje(): Integer&lt;br/&gt;+ toString(): String&lt;/p&gt;" style="verticalAlign=top;align=left;overflow=fill;fontSize=14;fontFamily=Helvetica;html=1;rounded=0;shadow=0;comic=0;labelBackgroundColor=none;strokeWidth=1;fillColor=#E8F1FF;strokeColor=#7C8EBA;" parent="1" vertex="1">
          <mxGeometry x="958" y="1605" width="259" height="205" as="geometry" />
        </mxCell>
        <mxCell id="node14" value="&lt;p style=&quot;margin:0px;margin-top:4px;text-align:center;&quot;&gt;&lt;b&gt;Tablero&lt;/b&gt;&lt;/p&gt;&lt;hr size=&quot;1&quot;/&gt;&lt;p style=&quot;margin:0 0 0 4px;line-height:1.6;&quot;&gt;+ Tablero(): &lt;/p&gt;&lt;hr size=&quot;1&quot;/&gt;&lt;p style=&quot;margin:0 0 0 4px;line-height:1.6;&quot;&gt;- jugadaEnMesa: ArrayList&amp;lt;ArrayList&amp;lt;Ficha&amp;gt;&amp;gt;&lt;br/&gt;- jugadores: ArrayList&amp;lt;IJugador&amp;gt;&lt;br/&gt;- puntosEquipos: int&lt;/p&gt;&lt;hr size=&quot;1&quot;/&gt;&lt;p style=&quot;margin:0 0 0 4px;line-height:1.6;&quot;&gt;+ agregarJugadores(IJugador): void&lt;br/&gt;- cantidadComodines(ArrayList&amp;lt;Ficha&amp;gt;): int&lt;br/&gt;- cantidadFichaDos(ArrayList&amp;lt;Ficha&amp;gt;): int&lt;br/&gt;- contieneComodin(ArrayList&amp;lt;Ficha&amp;gt;): boolean&lt;br/&gt;- esEscalera(ArrayList&amp;lt;Ficha&amp;gt;): boolean&lt;br/&gt;- esPierna(ArrayList&amp;lt;Ficha&amp;gt;): boolean&lt;br/&gt;+ getJugadaEnMesa(): ArrayList&amp;lt;ArrayList&amp;lt;Ficha&amp;gt;&amp;gt;&lt;br/&gt;+ getJugadores(): ArrayList&amp;lt;IJugador&amp;gt;&lt;br/&gt;+ getPuntosEquipos(): int&lt;br/&gt;+ isCanasta(): boolean&lt;br/&gt;- isCanastaImpura(ArrayList&amp;lt;Ficha&amp;gt;): boolean&lt;br/&gt;- isCanastaPura(ArrayList&amp;lt;Ficha&amp;gt;): boolean&lt;br/&gt;+ isVacio(): boolean&lt;br/&gt;+ mostrarJuegosEnMesa(): ArrayList&amp;lt;ArrayList&amp;lt;IFicha&amp;gt;&amp;gt;&lt;br/&gt;+ mostrarPuntajeJugadores(): String&lt;br/&gt;- puntos(ArrayList&amp;lt;Ficha&amp;gt;): int&lt;br/&gt;+ puntosEnMesa(): void&lt;br/&gt;+ puntosEnMesaParcial(): void&lt;br/&gt;+ restarPuntos(int): void&lt;br/&gt;+ sizeJugadaEnMesa(): int&lt;br/&gt;+ sumarPuntos(int): void&lt;br/&gt;- tamanioJugadaEnMesa(): Integer&lt;br/&gt;+ toStringJugadores(): String&lt;br/&gt;+ verificarJugadaExistente(ArrayList&amp;lt;Ficha&amp;gt;, int): boolean&lt;br/&gt;+ verificarJugadaNueva(ArrayList&amp;lt;Ficha&amp;gt;): boolean&lt;/p&gt;" style="verticalAlign=top;align=left;overflow=fill;fontSize=14;fontFamily=Helvetica;html=1;rounded=0;shadow=0;comic=0;labelBackgroundColor=none;strokeWidth=1;fillColor=#E8F1FF;strokeColor=#7C8EBA;" parent="1" vertex="1">
          <mxGeometry x="1472" y="2240" width="390" height="710" as="geometry" />
        </mxCell>
        <mxCell id="edge5" value="" style="html=1;rounded=1;edgeStyle=orthogonalEdgeStyle;dashed=1;startArrow=none;endArrow=block;endSize=12;strokeColor=#7C8EBA;exitX=0.833;exitY=1.000;exitDx=0;exitDy=0;entryX=0.500;entryY=0.000;entryDx=0;entryDy=0;fillColor=#E8F1FF;" parent="1" source="node2" target="node6" edge="1">
          <mxGeometry width="50" height="50" relative="1" as="geometry">
            <Array as="points">
              <mxPoint x="1499" y="1170" />
              <mxPoint x="1627" y="1170" />
            </Array>
          </mxGeometry>
        </mxCell>
        <mxCell id="edge18" value="" style="html=1;rounded=1;edgeStyle=orthogonalEdgeStyle;dashed=0;startArrow=diamondThinstartSize=12;endArrow=openThin;endSize=12;strokeColor=#7C8EBA;exitX=0.167;exitY=1.000;exitDx=0;exitDy=0;entryX=0.250;entryY=0.000;entryDx=0;entryDy=0;fillColor=#E8F1FF;" parent="1" source="node2" target="node10" edge="1">
          <mxGeometry width="50" height="50" relative="1" as="geometry">
            <Array as="points">
              <mxPoint x="1195" y="1170" />
              <mxPoint x="407" y="1170" />
              <mxPoint x="407" y="1490" />
              <mxPoint x="367" y="1490" />
              <mxPoint x="367" y="1910" />
              <mxPoint x="807" y="1910" />
              <mxPoint x="807" y="2990" />
              <mxPoint x="1047" y="2990" />
              <mxPoint x="1047" y="3070" />
              <mxPoint x="1087" y="3070" />
            </Array>
          </mxGeometry>
        </mxCell>
        <mxCell id="label108" value="1" style="edgeLabel;resizable=0;html=1;align=left;verticalAlign=top;strokeColor=#7C8EBA;fillColor=#E8F1FF;" parent="edge18" vertex="1" connectable="0">
          <mxGeometry x="598" y="1150" as="geometry" />
        </mxCell>
        <mxCell id="label112" value="*" style="edgeLabel;resizable=0;html=1;align=left;verticalAlign=top;strokeColor=#7C8EBA;fillColor=#E8F1FF;" parent="edge18" vertex="1" connectable="0">
          <mxGeometry x="983" y="2970" as="geometry" />
        </mxCell>
        <mxCell id="label113" value="jugadores" style="edgeLabel;resizable=0;html=1;align=left;verticalAlign=top;strokeColor=#7C8EBA;fillColor=#E8F1FF;" parent="edge18" vertex="1" connectable="0">
          <mxGeometry x="1047" y="3000" as="geometry" />
        </mxCell>
        <mxCell id="edge20" value="" style="html=1;rounded=1;edgeStyle=orthogonalEdgeStyle;dashed=1;startArrow=none;endArrow=openThin;endSize=12;strokeColor=#7C8EBA;exitX=0.500;exitY=1.000;exitDx=0;exitDy=0;entryX=0.500;entryY=0.000;entryDx=0;entryDy=0;fillColor=#E8F1FF;" parent="1" source="node2" target="node15" edge="1">
          <mxGeometry width="50" height="50" relative="1" as="geometry">
            <Array as="points">
              <mxPoint x="1347" y="1510" />
              <mxPoint x="1247" y="1510" />
              <mxPoint x="1247" y="1790" />
              <mxPoint x="987" y="1790" />
            </Array>
          </mxGeometry>
        </mxCell>
        <mxCell id="label122" value="Â«createÂ»" style="edgeLabel;resizable=0;html=1;align=left;verticalAlign=top;strokeColor=#7C8EBA;fillColor=#E8F1FF;" parent="edge20" vertex="1" connectable="0">
          <mxGeometry x="1195" y="1547" as="geometry" />
        </mxCell>
        <mxCell id="edge24" value="" style="html=1;rounded=1;edgeStyle=orthogonalEdgeStyle;dashed=0;startArrow=diamondThinstartSize=12;endArrow=openThin;endSize=12;strokeColor=#7C8EBA;exitX=0.167;exitY=1.000;exitDx=0;exitDy=0;entryX=0.750;entryY=1.000;entryDx=0;entryDy=0;fillColor=#E8F1FF;" parent="1" source="node2" target="node12" edge="1">
          <mxGeometry width="50" height="50" relative="1" as="geometry">
            <Array as="points">
              <mxPoint x="1195" y="1170" />
              <mxPoint x="407" y="1170" />
              <mxPoint x="407" y="1490" />
              <mxPoint x="327" y="1490" />
              <mxPoint x="327" y="2570" />
              <mxPoint x="347" y="2570" />
              <mxPoint x="347" y="2790" />
              <mxPoint x="692" y="2790" />
            </Array>
          </mxGeometry>
        </mxCell>
        <mxCell id="label144" value="1" style="edgeLabel;resizable=0;html=1;align=left;verticalAlign=top;strokeColor=#7C8EBA;fillColor=#E8F1FF;" parent="edge24" vertex="1" connectable="0">
          <mxGeometry x="795" y="1150" as="geometry" />
        </mxCell>
        <mxCell id="label148" value="1" style="edgeLabel;resizable=0;html=1;align=left;verticalAlign=top;strokeColor=#7C8EBA;fillColor=#E8F1FF;" parent="edge24" vertex="1" connectable="0">
          <mxGeometry x="428" y="2770" as="geometry" />
        </mxCell>
        <mxCell id="label149" value="mazo" style="edgeLabel;resizable=0;html=1;align=left;verticalAlign=top;strokeColor=#7C8EBA;fillColor=#E8F1FF;" parent="edge24" vertex="1" connectable="0">
          <mxGeometry x="347" y="2615" as="geometry" />
        </mxCell>
        <mxCell id="edge25" value="" style="html=1;rounded=1;edgeStyle=orthogonalEdgeStyle;dashed=1;startArrow=none;endArrow=openThin;endSize=12;strokeColor=#7C8EBA;exitX=0.500;exitY=1.000;exitDx=0;exitDy=0;entryX=0.250;entryY=1.000;entryDx=0;entryDy=0;fillColor=#E8F1FF;" parent="1" source="node2" target="node12" edge="1">
          <mxGeometry width="50" height="50" relative="1" as="geometry">
            <Array as="points">
              <mxPoint x="1347" y="1510" />
              <mxPoint x="1327" y="1510" />
              <mxPoint x="1327" y="2190" />
              <mxPoint x="1407" y="2190" />
              <mxPoint x="1407" y="2930" />
              <mxPoint x="522" y="2930" />
            </Array>
          </mxGeometry>
        </mxCell>
        <mxCell id="label152" value="Â«createÂ»" style="edgeLabel;resizable=0;html=1;align=left;verticalAlign=top;strokeColor=#7C8EBA;fillColor=#E8F1FF;" parent="edge25" vertex="1" connectable="0">
          <mxGeometry x="1355" y="2365" as="geometry" />
        </mxCell>
        <mxCell id="edge22" value="" style="html=1;rounded=1;edgeStyle=orthogonalEdgeStyle;dashed=0;startArrow=diamondThinstartSize=12;endArrow=openThin;endSize=12;strokeColor=#7C8EBA;exitX=0.167;exitY=1.000;exitDx=0;exitDy=0;entryX=0.500;entryY=1.000;entryDx=0;entryDy=0;fillColor=#E8F1FF;" parent="1" source="node2" target="node0" edge="1">
          <mxGeometry width="50" height="50" relative="1" as="geometry">
            <Array as="points">
              <mxPoint x="1195" y="1170" />
              <mxPoint x="407" y="1170" />
              <mxPoint x="407" y="1870" />
              <mxPoint x="647" y="1870" />
            </Array>
          </mxGeometry>
        </mxCell>
        <mxCell id="label132" value="1" style="edgeLabel;resizable=0;html=1;align=left;verticalAlign=top;strokeColor=#7C8EBA;fillColor=#E8F1FF;" parent="edge22" vertex="1" connectable="0">
          <mxGeometry x="1058" y="1150" as="geometry" />
        </mxCell>
        <mxCell id="label136" value="1" style="edgeLabel;resizable=0;html=1;align=left;verticalAlign=top;strokeColor=#7C8EBA;fillColor=#E8F1FF;" parent="edge22" vertex="1" connectable="0">
          <mxGeometry x="562" y="1850" as="geometry" />
        </mxCell>
        <mxCell id="label137" value="partidaGuardada" style="edgeLabel;resizable=0;html=1;align=left;verticalAlign=top;strokeColor=#7C8EBA;fillColor=#E8F1FF;" parent="edge22" vertex="1" connectable="0">
          <mxGeometry x="407" y="1510" as="geometry" />
        </mxCell>
        <mxCell id="edge30" value="" style="html=1;rounded=1;edgeStyle=orthogonalEdgeStyle;dashed=1;startArrow=none;endArrow=openThin;endSize=12;strokeColor=#7C8EBA;exitX=0.500;exitY=1.000;exitDx=0;exitDy=0;entryX=0.500;entryY=0.000;entryDx=0;entryDy=0;fillColor=#E8F1FF;" parent="1" source="node2" target="node0" edge="1">
          <mxGeometry width="50" height="50" relative="1" as="geometry">
            <Array as="points">
              <mxPoint x="1347" y="1510" />
              <mxPoint x="647" y="1510" />
            </Array>
          </mxGeometry>
        </mxCell>
        <mxCell id="label182" value="Â«createÂ»" style="edgeLabel;resizable=0;html=1;align=left;verticalAlign=top;strokeColor=#7C8EBA;fillColor=#E8F1FF;" parent="edge30" vertex="1" connectable="0">
          <mxGeometry x="1041" y="1490" as="geometry" />
        </mxCell>
        <mxCell id="edge33" value="" style="html=1;rounded=1;edgeStyle=orthogonalEdgeStyle;dashed=0;startArrow=diamondThinstartSize=12;endArrow=openThin;endSize=12;strokeColor=#7C8EBA;exitX=0.167;exitY=1.000;exitDx=0;exitDy=0;entryX=0.500;entryY=1.000;entryDx=0;entryDy=0;fillColor=#E8F1FF;" parent="1" source="node2" target="node18" edge="1">
          <mxGeometry width="50" height="50" relative="1" as="geometry">
            <Array as="points">
              <mxPoint x="1195" y="1170" />
              <mxPoint x="407" y="1170" />
              <mxPoint x="407" y="1490" />
              <mxPoint x="887" y="1490" />
              <mxPoint x="887" y="2250" />
              <mxPoint x="1127" y="2250" />
              <mxPoint x="1127" y="2710" />
              <mxPoint x="1267" y="2710" />
            </Array>
          </mxGeometry>
        </mxCell>
        <mxCell id="label198" value="1" style="edgeLabel;resizable=0;html=1;align=left;verticalAlign=top;strokeColor=#7C8EBA;fillColor=#E8F1FF;" parent="edge33" vertex="1" connectable="0">
          <mxGeometry x="992" y="1150" as="geometry" />
        </mxCell>
        <mxCell id="label202" value="1" style="edgeLabel;resizable=0;html=1;align=left;verticalAlign=top;strokeColor=#7C8EBA;fillColor=#E8F1FF;" parent="edge33" vertex="1" connectable="0">
          <mxGeometry x="1192" y="2690" as="geometry" />
        </mxCell>
        <mxCell id="label203" value="pozo" style="edgeLabel;resizable=0;html=1;align=left;verticalAlign=top;strokeColor=#7C8EBA;fillColor=#E8F1FF;" parent="edge33" vertex="1" connectable="0">
          <mxGeometry x="1127" y="2355" as="geometry" />
        </mxCell>
        <mxCell id="edge34" value="" style="html=1;rounded=1;edgeStyle=orthogonalEdgeStyle;dashed=1;startArrow=none;endArrow=openThin;endSize=12;strokeColor=#7C8EBA;exitX=0.500;exitY=1.000;exitDx=0;exitDy=0;entryX=0.500;entryY=0.000;entryDx=0;entryDy=0;fillColor=#E8F1FF;" parent="1" source="node2" target="node18" edge="1">
          <mxGeometry width="50" height="50" relative="1" as="geometry">
            <Array as="points">
              <mxPoint x="1347" y="1510" />
              <mxPoint x="1287" y="1510" />
              <mxPoint x="1287" y="1710" />
              <mxPoint x="1267" y="1710" />
            </Array>
          </mxGeometry>
        </mxCell>
        <mxCell id="label206" value="Â«createÂ»" style="edgeLabel;resizable=0;html=1;align=left;verticalAlign=top;strokeColor=#7C8EBA;fillColor=#E8F1FF;" parent="edge34" vertex="1" connectable="0">
          <mxGeometry x="1235" y="1600" as="geometry" />
        </mxCell>
        <mxCell id="edge26" value="" style="html=1;rounded=1;edgeStyle=orthogonalEdgeStyle;dashed=1;startArrow=none;endArrow=openThin;endSize=12;strokeColor=#7C8EBA;exitX=0.500;exitY=1.000;exitDx=0;exitDy=0;entryX=0.750;entryY=0.000;entryDx=0;entryDy=0;fillColor=#E8F1FF;" parent="1" source="node2" target="node16" edge="1">
          <mxGeometry width="50" height="50" relative="1" as="geometry">
            <Array as="points">
              <mxPoint x="1347" y="1510" />
              <mxPoint x="1152" y="1510" />
            </Array>
          </mxGeometry>
        </mxCell>
        <mxCell id="label158" value="Â«createÂ»" style="edgeLabel;resizable=0;html=1;align=left;verticalAlign=top;strokeColor=#7C8EBA;fillColor=#E8F1FF;" parent="edge26" vertex="1" connectable="0">
          <mxGeometry x="1100" y="1524" as="geometry" />
        </mxCell>
        <mxCell id="edge31" value="" style="html=1;rounded=1;edgeStyle=orthogonalEdgeStyle;dashed=0;startArrow=diamondThinstartSize=12;endArrow=openThin;endSize=12;strokeColor=#7C8EBA;exitX=0.167;exitY=1.000;exitDx=0;exitDy=0;entryX=0.250;entryY=0.000;entryDx=0;entryDy=0;fillColor=#E8F1FF;" parent="1" source="node2" target="node16" edge="1">
          <mxGeometry width="50" height="50" relative="1" as="geometry">
            <Array as="points">
              <mxPoint x="1195" y="1170" />
              <mxPoint x="407" y="1170" />
              <mxPoint x="407" y="1490" />
              <mxPoint x="1022" y="1490" />
            </Array>
          </mxGeometry>
        </mxCell>
        <mxCell id="label186" value="1" style="edgeLabel;resizable=0;html=1;align=left;verticalAlign=top;strokeColor=#7C8EBA;fillColor=#E8F1FF;" parent="edge31" vertex="1" connectable="0">
          <mxGeometry x="1189" y="1150" as="geometry" />
        </mxCell>
        <mxCell id="label190" value="*" style="edgeLabel;resizable=0;html=1;align=left;verticalAlign=top;strokeColor=#7C8EBA;fillColor=#E8F1FF;" parent="edge31" vertex="1" connectable="0">
          <mxGeometry x="1013" y="1566" as="geometry" />
        </mxCell>
        <mxCell id="label191" value="topPuntos" style="edgeLabel;resizable=0;html=1;align=left;verticalAlign=top;strokeColor=#7C8EBA;fillColor=#E8F1FF;" parent="edge31" vertex="1" connectable="0">
          <mxGeometry x="1022" y="1566" as="geometry" />
        </mxCell>
        <mxCell id="edge19" value="" style="html=1;rounded=1;edgeStyle=orthogonalEdgeStyle;dashed=1;startArrow=none;endArrow=openThin;endSize=12;strokeColor=#7C8EBA;exitX=0.500;exitY=1.000;exitDx=0;exitDy=0;entryX=0.500;entryY=0.000;entryDx=0;entryDy=0;fillColor=#E8F1FF;" parent="1" source="node2" target="node14" edge="1">
          <mxGeometry width="50" height="50" relative="1" as="geometry">
            <Array as="points">
              <mxPoint x="1347" y="1510" />
              <mxPoint x="1367" y="1510" />
              <mxPoint x="1367" y="2170" />
              <mxPoint x="1667" y="2170" />
            </Array>
          </mxGeometry>
        </mxCell>
        <mxCell id="label116" value="Â«createÂ»" style="edgeLabel;resizable=0;html=1;align=left;verticalAlign=top;strokeColor=#7C8EBA;fillColor=#E8F1FF;" parent="edge19" vertex="1" connectable="0">
          <mxGeometry x="1315" y="1830" as="geometry" />
        </mxCell>
        <mxCell id="edge21" value="" style="html=1;rounded=1;edgeStyle=orthogonalEdgeStyle;dashed=0;startArrow=diamondThinstartSize=12;endArrow=openThin;endSize=12;strokeColor=#7C8EBA;exitX=0.167;exitY=1.000;exitDx=0;exitDy=0;entryX=0.250;entryY=1.000;entryDx=0;entryDy=0;fillColor=#E8F1FF;" parent="1" source="node2" target="node14" edge="1">
          <mxGeometry width="50" height="50" relative="1" as="geometry">
            <Array as="points">
              <mxPoint x="1195" y="1170" />
              <mxPoint x="407" y="1170" />
              <mxPoint x="407" y="1490" />
              <mxPoint x="927" y="1490" />
              <mxPoint x="927" y="2230" />
              <mxPoint x="1447" y="2230" />
              <mxPoint x="1447" y="2970" />
              <mxPoint x="1570" y="2970" />
            </Array>
          </mxGeometry>
        </mxCell>
        <mxCell id="label126" value="1" style="edgeLabel;resizable=0;html=1;align=left;verticalAlign=top;strokeColor=#7C8EBA;fillColor=#E8F1FF;" parent="edge21" vertex="1" connectable="0">
          <mxGeometry x="1144" y="1142" as="geometry" />
        </mxCell>
        <mxCell id="label130" value="1" style="edgeLabel;resizable=0;html=1;align=left;verticalAlign=top;strokeColor=#7C8EBA;fillColor=#E8F1FF;" parent="edge21" vertex="1" connectable="0">
          <mxGeometry x="1472" y="2950" as="geometry" />
        </mxCell>
        <mxCell id="label131" value="tableroEquipo1" style="edgeLabel;resizable=0;html=1;align=left;verticalAlign=top;strokeColor=#7C8EBA;fillColor=#E8F1FF;" parent="edge21" vertex="1" connectable="0">
          <mxGeometry x="1447" y="2220" as="geometry" />
        </mxCell>
        <mxCell id="edge9" value="" style="html=1;rounded=1;edgeStyle=orthogonalEdgeStyle;dashed=0;startArrow=diamondThinstartSize=12;endArrow=openThin;endSize=12;strokeColor=#7C8EBA;exitX=0.750;exitY=1.000;exitDx=0;exitDy=0;entryX=0.500;entryY=0.000;entryDx=0;entryDy=0;fillColor=#E8F1FF;" parent="1" source="node4" target="node11" edge="1">
          <mxGeometry width="50" height="50" relative="1" as="geometry">
            <Array as="points">
              <mxPoint x="608" y="4290" />
              <mxPoint x="627" y="4290" />
            </Array>
          </mxGeometry>
        </mxCell>
        <mxCell id="label54" value="1" style="edgeLabel;resizable=0;html=1;align=left;verticalAlign=top;strokeColor=#7C8EBA;fillColor=#E8F1FF;" parent="edge9" vertex="1" connectable="0">
          <mxGeometry x="616" y="4302" as="geometry" />
        </mxCell>
        <mxCell id="label58" value="1" style="edgeLabel;resizable=0;html=1;align=left;verticalAlign=top;strokeColor=#7C8EBA;fillColor=#E8F1FF;" parent="edge9" vertex="1" connectable="0">
          <mxGeometry x="616" y="4488" as="geometry" />
        </mxCell>
        <mxCell id="label59" value="color" style="edgeLabel;resizable=0;html=1;align=left;verticalAlign=top;strokeColor=#7C8EBA;fillColor=#E8F1FF;" parent="edge9" vertex="1" connectable="0">
          <mxGeometry x="627" y="4488" as="geometry" />
        </mxCell>
        <mxCell id="edge7" value="" style="html=1;rounded=1;edgeStyle=orthogonalEdgeStyle;dashed=1;startArrow=none;endArrow=block;endSize=12;strokeColor=#7C8EBA;exitX=0.250;exitY=1.000;exitDx=0;exitDy=0;entryX=0.500;entryY=0.000;entryDx=0;entryDy=0;fillColor=#E8F1FF;" parent="1" source="node4" target="node9" edge="1">
          <mxGeometry width="50" height="50" relative="1" as="geometry">
            <Array as="points">
              <mxPoint x="486" y="4270" />
              <mxPoint x="487" y="4270" />
            </Array>
          </mxGeometry>
        </mxCell>
        <mxCell id="edge1" value="" style="html=1;rounded=1;edgeStyle=orthogonalEdgeStyle;dashed=0;startArrow=none;endArrow=block;endSize=12;strokeColor=#7C8EBA;exitX=0.500;exitY=1.001;exitDx=0;exitDy=0;entryX=0.500;entryY=0.000;entryDx=0;entryDy=0;fillColor=#E8F1FF;" parent="1" source="node17" target="node4" edge="1">
          <mxGeometry width="50" height="50" relative="1" as="geometry">
            <Array as="points">
              <mxPoint x="447" y="3690" />
              <mxPoint x="547" y="3690" />
            </Array>
          </mxGeometry>
        </mxCell>
        <mxCell id="edge2" value="" style="html=1;rounded=1;edgeStyle=orthogonalEdgeStyle;dashed=0;startArrow=none;endArrow=block;endSize=12;strokeColor=#7C8EBA;exitX=0.500;exitY=1.000;exitDx=0;exitDy=0;entryX=0.500;entryY=0.000;entryDx=0;entryDy=0;fillColor=#E8F1FF;" parent="1" source="node3" target="node4" edge="1">
          <mxGeometry width="50" height="50" relative="1" as="geometry">
            <Array as="points">
              <mxPoint x="607" y="3830" />
              <mxPoint x="547" y="3830" />
            </Array>
          </mxGeometry>
        </mxCell>
        <mxCell id="edge23" value="" style="html=1;rounded=1;edgeStyle=orthogonalEdgeStyle;dashed=0;startArrow=diamondThinstartSize=12;endArrow=openThin;endSize=12;strokeColor=#7C8EBA;exitX=0.750;exitY=1.000;exitDx=0;exitDy=0;entryX=0.750;entryY=1.000;entryDx=0;entryDy=0;fillColor=#E8F1FF;" parent="1" source="node15" target="node4" edge="1">
          <mxGeometry width="50" height="50" relative="1" as="geometry">
            <Array as="points">
              <mxPoint x="1048" y="3030" />
              <mxPoint x="1287" y="3030" />
              <mxPoint x="1287" y="4270" />
              <mxPoint x="608" y="4270" />
            </Array>
          </mxGeometry>
        </mxCell>
        <mxCell id="label138" value="1" style="edgeLabel;resizable=0;html=1;align=left;verticalAlign=top;strokeColor=#7C8EBA;fillColor=#E8F1FF;" parent="edge23" vertex="1" connectable="0">
          <mxGeometry x="1122" y="3010" as="geometry" />
        </mxCell>
        <mxCell id="label142" value="*" style="edgeLabel;resizable=0;html=1;align=left;verticalAlign=top;strokeColor=#7C8EBA;fillColor=#E8F1FF;" parent="edge23" vertex="1" connectable="0">
          <mxGeometry x="717" y="4250" as="geometry" />
        </mxCell>
        <mxCell id="label143" value="atril" style="edgeLabel;resizable=0;html=1;align=left;verticalAlign=top;strokeColor=#7C8EBA;fillColor=#E8F1FF;" parent="edge23" vertex="1" connectable="0">
          <mxGeometry x="709" y="4270" as="geometry" />
        </mxCell>
        <mxCell id="edge6" value="" style="html=1;rounded=1;edgeStyle=orthogonalEdgeStyle;dashed=1;startArrow=none;endArrow=block;endSize=12;strokeColor=#7C8EBA;exitX=0.250;exitY=1.000;exitDx=0;exitDy=0;entryX=0.750;entryY=0.000;entryDx=0;entryDy=0;fillColor=#E8F1FF;" parent="1" source="node15" target="node10" edge="1">
          <mxGeometry width="50" height="50" relative="1" as="geometry">
            <Array as="points">
              <mxPoint x="927" y="3050" />
              <mxPoint x="1208" y="3050" />
            </Array>
          </mxGeometry>
        </mxCell>
        <mxCell id="edge15" value="" style="html=1;rounded=1;edgeStyle=orthogonalEdgeStyle;dashed=1;startArrow=none;endArrow=openThin;endSize=12;strokeColor=#7C8EBA;exitX=0.250;exitY=1.000;exitDx=0;exitDy=0;entryX=0.500;entryY=0.001;entryDx=0;entryDy=0;fillColor=#E8F1FF;" parent="1" source="node12" target="node17" edge="1">
          <mxGeometry width="50" height="50" relative="1" as="geometry">
            <Array as="points">
              <mxPoint x="522" y="2770" />
              <mxPoint x="607" y="2770" />
              <mxPoint x="607" y="3250" />
              <mxPoint x="447" y="3250" />
            </Array>
          </mxGeometry>
        </mxCell>
        <mxCell id="label92" value="Â«createÂ»" style="edgeLabel;resizable=0;html=1;align=left;verticalAlign=top;strokeColor=#7C8EBA;fillColor=#E8F1FF;" parent="edge15" vertex="1" connectable="0">
          <mxGeometry x="555" y="3000" as="geometry" />
        </mxCell>
        <mxCell id="edge10" value="" style="html=1;rounded=1;edgeStyle=orthogonalEdgeStyle;dashed=1;startArrow=none;endArrow=openThin;endSize=12;strokeColor=#7C8EBA;exitX=0.250;exitY=1.000;exitDx=0;exitDy=0;entryX=0.500;entryY=0.000;entryDx=0;entryDy=0;fillColor=#E8F1FF;" parent="1" source="node12" target="node3" edge="1">
          <mxGeometry width="50" height="50" relative="1" as="geometry">
            <Array as="points">
              <mxPoint x="522" y="2770" />
              <mxPoint x="607" y="2770" />
            </Array>
          </mxGeometry>
        </mxCell>
        <mxCell id="label62" value="Â«createÂ»" style="edgeLabel;resizable=0;html=1;align=left;verticalAlign=top;strokeColor=#7C8EBA;fillColor=#E8F1FF;" parent="edge10" vertex="1" connectable="0">
          <mxGeometry x="555" y="2839" as="geometry" />
        </mxCell>
        <mxCell id="edge8" value="" style="html=1;rounded=1;edgeStyle=orthogonalEdgeStyle;dashed=0;startArrow=diamondThinstartSize=12;endArrow=openThin;endSize=12;strokeColor=#7C8EBA;exitX=0.750;exitY=1.000;exitDx=0;exitDy=0;entryX=0.750;entryY=0.001;entryDx=0;entryDy=0;fillColor=#E8F1FF;" parent="1" source="node12" target="node5" edge="1">
          <mxGeometry width="50" height="50" relative="1" as="geometry">
            <Array as="points">
              <mxPoint x="692" y="2770" />
              <mxPoint x="767" y="2770" />
              <mxPoint x="767" y="3070" />
              <mxPoint x="835" y="3070" />
            </Array>
          </mxGeometry>
        </mxCell>
        <mxCell id="label48" value="1" style="edgeLabel;resizable=0;html=1;align=left;verticalAlign=top;strokeColor=#7C8EBA;fillColor=#E8F1FF;" parent="edge8" vertex="1" connectable="0">
          <mxGeometry x="737" y="2750" as="geometry" />
        </mxCell>
        <mxCell id="label52" value="*" style="edgeLabel;resizable=0;html=1;align=left;verticalAlign=top;strokeColor=#7C8EBA;fillColor=#E8F1FF;" parent="edge8" vertex="1" connectable="0">
          <mxGeometry x="826" y="3246" as="geometry" />
        </mxCell>
        <mxCell id="label53" value="muerto" style="edgeLabel;resizable=0;html=1;align=left;verticalAlign=top;strokeColor=#7C8EBA;fillColor=#E8F1FF;" parent="edge8" vertex="1" connectable="0">
          <mxGeometry x="835" y="3194" as="geometry" />
        </mxCell>
        <mxCell id="edge11" value="" style="html=1;rounded=1;edgeStyle=orthogonalEdgeStyle;dashed=1;startArrow=none;endArrow=openThin;endSize=12;strokeColor=#7C8EBA;exitX=0.250;exitY=1.000;exitDx=0;exitDy=0;entryX=0.250;entryY=0.001;entryDx=0;entryDy=0;fillColor=#E8F1FF;" parent="1" source="node12" target="node5" edge="1">
          <mxGeometry width="50" height="50" relative="1" as="geometry">
            <Array as="points">
              <mxPoint x="522" y="2770" />
              <mxPoint x="607" y="2770" />
              <mxPoint x="607" y="3250" />
              <mxPoint x="700" y="3250" />
            </Array>
          </mxGeometry>
        </mxCell>
        <mxCell id="label68" value="Â«createÂ»" style="edgeLabel;resizable=0;html=1;align=left;verticalAlign=top;strokeColor=#7C8EBA;fillColor=#E8F1FF;" parent="edge11" vertex="1" connectable="0">
          <mxGeometry x="555" y="3080" as="geometry" />
        </mxCell>
        <mxCell id="edge17" value="" style="html=1;rounded=1;edgeStyle=orthogonalEdgeStyle;dashed=0;startArrow=diamondThinstartSize=12;endArrow=openThin;endSize=12;strokeColor=#7C8EBA;exitX=0.750;exitY=1.000;exitDx=0;exitDy=0;entryX=0.750;entryY=0.000;entryDx=0;entryDy=0;fillColor=#E8F1FF;" parent="1" source="node12" target="node13" edge="1">
          <mxGeometry width="50" height="50" relative="1" as="geometry">
            <Array as="points">
              <mxPoint x="692" y="2770" />
              <mxPoint x="767" y="2770" />
              <mxPoint x="767" y="3070" />
              <mxPoint x="1008" y="3070" />
            </Array>
          </mxGeometry>
        </mxCell>
        <mxCell id="label102" value="1" style="edgeLabel;resizable=0;html=1;align=left;verticalAlign=top;strokeColor=#7C8EBA;fillColor=#E8F1FF;" parent="edge17" vertex="1" connectable="0">
          <mxGeometry x="724" y="2750" as="geometry" />
        </mxCell>
        <mxCell id="label106" value="1" style="edgeLabel;resizable=0;html=1;align=left;verticalAlign=top;strokeColor=#7C8EBA;fillColor=#E8F1FF;" parent="edge17" vertex="1" connectable="0">
          <mxGeometry x="997" y="3546" as="geometry" />
        </mxCell>
        <mxCell id="label107" value="mazo" style="edgeLabel;resizable=0;html=1;align=left;verticalAlign=top;strokeColor=#7C8EBA;fillColor=#E8F1FF;" parent="edge17" vertex="1" connectable="0">
          <mxGeometry x="1008" y="3546" as="geometry" />
        </mxCell>
        <mxCell id="edge29" value="" style="html=1;rounded=1;edgeStyle=orthogonalEdgeStyle;dashed=1;startArrow=none;endArrow=openThin;endSize=12;strokeColor=#7C8EBA;exitX=0.250;exitY=1.000;exitDx=0;exitDy=0;entryX=0.250;entryY=0.001;entryDx=0;entryDy=0;fillColor=#E8F1FF;" parent="1" source="node12" target="node13" edge="1">
          <mxGeometry width="50" height="50" relative="1" as="geometry">
            <Array as="points">
              <mxPoint x="522" y="2770" />
              <mxPoint x="607" y="2770" />
              <mxPoint x="607" y="3250" />
              <mxPoint x="927" y="3250" />
            </Array>
          </mxGeometry>
        </mxCell>
        <mxCell id="label176" value="Â«createÂ»" style="edgeLabel;resizable=0;html=1;align=left;verticalAlign=top;strokeColor=#7C8EBA;fillColor=#E8F1FF;" parent="edge29" vertex="1" connectable="0">
          <mxGeometry x="555" y="3160" as="geometry" />
        </mxCell>
        <mxCell id="edge32" value="" style="html=1;rounded=1;edgeStyle=orthogonalEdgeStyle;dashed=0;startArrow=diamondThinstartSize=12;endArrow=openThin;endSize=12;strokeColor=#7C8EBA;exitX=0.500;exitY=1.000;exitDx=0;exitDy=0;entryX=0.250;entryY=0.000;entryDx=0;entryDy=0;fillColor=#E8F1FF;" parent="1" source="node0" target="node10" edge="1">
          <mxGeometry width="50" height="50" relative="1" as="geometry">
            <Array as="points">
              <mxPoint x="647" y="1890" />
              <mxPoint x="847" y="1890" />
              <mxPoint x="847" y="2990" />
              <mxPoint x="1047" y="2990" />
              <mxPoint x="1047" y="3070" />
              <mxPoint x="1087" y="3070" />
            </Array>
          </mxGeometry>
        </mxCell>
        <mxCell id="label192" value="1" style="edgeLabel;resizable=0;html=1;align=left;verticalAlign=top;strokeColor=#7C8EBA;fillColor=#E8F1FF;" parent="edge32" vertex="1" connectable="0">
          <mxGeometry x="842" y="1870" as="geometry" />
        </mxCell>
        <mxCell id="label196" value="*" style="edgeLabel;resizable=0;html=1;align=left;verticalAlign=top;strokeColor=#7C8EBA;fillColor=#E8F1FF;" parent="edge32" vertex="1" connectable="0">
          <mxGeometry x="993" y="2970" as="geometry" />
        </mxCell>
        <mxCell id="label197" value="jugadores" style="edgeLabel;resizable=0;html=1;align=left;verticalAlign=top;strokeColor=#7C8EBA;fillColor=#E8F1FF;" parent="edge32" vertex="1" connectable="0">
          <mxGeometry x="1087" y="3060" as="geometry" />
        </mxCell>
        <mxCell id="edge14" value="" style="html=1;rounded=1;edgeStyle=orthogonalEdgeStyle;dashed=0;startArrow=diamondThinstartSize=12;endArrow=openThin;endSize=12;strokeColor=#7C8EBA;exitX=0.500;exitY=1.000;exitDx=0;exitDy=0;entryX=0.750;entryY=1.000;entryDx=0;entryDy=0;fillColor=#E8F1FF;" parent="1" source="node0" target="node12" edge="1">
          <mxGeometry width="50" height="50" relative="1" as="geometry">
            <Array as="points">
              <mxPoint x="647" y="1890" />
              <mxPoint x="847" y="1890" />
              <mxPoint x="847" y="2190" />
              <mxPoint x="347" y="2190" />
              <mxPoint x="347" y="2790" />
              <mxPoint x="692" y="2790" />
            </Array>
          </mxGeometry>
        </mxCell>
        <mxCell id="label84" value="1" style="edgeLabel;resizable=0;html=1;align=left;verticalAlign=top;strokeColor=#7C8EBA;fillColor=#E8F1FF;" parent="edge14" vertex="1" connectable="0">
          <mxGeometry x="792" y="1870" as="geometry" />
        </mxCell>
        <mxCell id="label88" value="1" style="edgeLabel;resizable=0;html=1;align=left;verticalAlign=top;strokeColor=#7C8EBA;fillColor=#E8F1FF;" parent="edge14" vertex="1" connectable="0">
          <mxGeometry x="592" y="2170" as="geometry" />
        </mxCell>
        <mxCell id="label89" value="mazo" style="edgeLabel;resizable=0;html=1;align=left;verticalAlign=top;strokeColor=#7C8EBA;fillColor=#E8F1FF;" parent="edge14" vertex="1" connectable="0">
          <mxGeometry x="347" y="2480" as="geometry" />
        </mxCell>
        <mxCell id="edge13" value="" style="html=1;rounded=1;edgeStyle=orthogonalEdgeStyle;dashed=0;startArrow=diamondThinstartSize=12;endArrow=openThin;endSize=12;strokeColor=#7C8EBA;exitX=0.500;exitY=1.000;exitDx=0;exitDy=0;entryX=0.500;entryY=1.000;entryDx=0;entryDy=0;fillColor=#E8F1FF;" parent="1" source="node0" target="node18" edge="1">
          <mxGeometry width="50" height="50" relative="1" as="geometry">
            <Array as="points">
              <mxPoint x="647" y="1890" />
              <mxPoint x="847" y="1890" />
              <mxPoint x="847" y="2230" />
              <mxPoint x="887" y="2230" />
              <mxPoint x="887" y="2250" />
              <mxPoint x="1127" y="2250" />
              <mxPoint x="1127" y="2710" />
              <mxPoint x="1267" y="2710" />
            </Array>
          </mxGeometry>
        </mxCell>
        <mxCell id="label78" value="1" style="edgeLabel;resizable=0;html=1;align=left;verticalAlign=top;strokeColor=#7C8EBA;fillColor=#E8F1FF;" parent="edge13" vertex="1" connectable="0">
          <mxGeometry x="742" y="1870" as="geometry" />
        </mxCell>
        <mxCell id="label82" value="1" style="edgeLabel;resizable=0;html=1;align=left;verticalAlign=top;strokeColor=#7C8EBA;fillColor=#E8F1FF;" parent="edge13" vertex="1" connectable="0">
          <mxGeometry x="1157" y="2690" as="geometry" />
        </mxCell>
        <mxCell id="label83" value="pozo" style="edgeLabel;resizable=0;html=1;align=left;verticalAlign=top;strokeColor=#7C8EBA;fillColor=#E8F1FF;" parent="edge13" vertex="1" connectable="0">
          <mxGeometry x="1127" y="2470" as="geometry" />
        </mxCell>
        <mxCell id="edge28" value="" style="html=1;rounded=1;edgeStyle=orthogonalEdgeStyle;dashed=0;startArrow=diamondThinstartSize=12;endArrow=openThin;endSize=12;strokeColor=#7C8EBA;exitX=0.500;exitY=1.000;exitDx=0;exitDy=0;entryX=0.250;entryY=1.000;entryDx=0;entryDy=0;fillColor=#E8F1FF;" parent="1" source="node0" target="node14" edge="1">
          <mxGeometry width="50" height="50" relative="1" as="geometry">
            <Array as="points">
              <mxPoint x="647" y="1890" />
              <mxPoint x="847" y="1890" />
              <mxPoint x="847" y="2210" />
              <mxPoint x="927" y="2210" />
              <mxPoint x="927" y="2230" />
              <mxPoint x="1447" y="2230" />
              <mxPoint x="1447" y="2970" />
              <mxPoint x="1570" y="2970" />
            </Array>
          </mxGeometry>
        </mxCell>
        <mxCell id="label168" value="1" style="edgeLabel;resizable=0;html=1;align=left;verticalAlign=top;strokeColor=#7C8EBA;fillColor=#E8F1FF;" parent="edge28" vertex="1" connectable="0">
          <mxGeometry x="692" y="1870" as="geometry" />
        </mxCell>
        <mxCell id="label172" value="1" style="edgeLabel;resizable=0;html=1;align=left;verticalAlign=top;strokeColor=#7C8EBA;fillColor=#E8F1FF;" parent="edge28" vertex="1" connectable="0">
          <mxGeometry x="1533" y="2950" as="geometry" />
        </mxCell>
        <mxCell id="label173" value="tableroEquipo1" style="edgeLabel;resizable=0;html=1;align=left;verticalAlign=top;strokeColor=#7C8EBA;fillColor=#E8F1FF;" parent="edge28" vertex="1" connectable="0">
          <mxGeometry x="1570" y="2945" as="geometry" />
        </mxCell>
        <mxCell id="edge16" value="" style="html=1;rounded=1;edgeStyle=orthogonalEdgeStyle;dashed=0;startArrow=diamondThinstartSize=12;endArrow=openThin;endSize=12;strokeColor=#7C8EBA;exitX=0.500;exitY=1.000;exitDx=0;exitDy=0;entryX=0.750;entryY=1.000;entryDx=0;entryDy=0;fillColor=#E8F1FF;" parent="1" source="node1" target="node4" edge="1">
          <mxGeometry width="50" height="50" relative="1" as="geometry">
            <Array as="points">
              <mxPoint x="767" y="3910" />
              <mxPoint x="1287" y="3910" />
              <mxPoint x="1287" y="4270" />
              <mxPoint x="608" y="4270" />
            </Array>
          </mxGeometry>
        </mxCell>
        <mxCell id="label96" value="1" style="edgeLabel;resizable=0;html=1;align=left;verticalAlign=top;strokeColor=#7C8EBA;fillColor=#E8F1FF;" parent="edge16" vertex="1" connectable="0">
          <mxGeometry x="848" y="3890" as="geometry" />
        </mxCell>
        <mxCell id="label100" value="*" style="edgeLabel;resizable=0;html=1;align=left;verticalAlign=top;strokeColor=#7C8EBA;fillColor=#E8F1FF;" parent="edge16" vertex="1" connectable="0">
          <mxGeometry x="758" y="3887" as="geometry" />
        </mxCell>
        <mxCell id="label101" value="pila" style="edgeLabel;resizable=0;html=1;align=left;verticalAlign=top;strokeColor=#7C8EBA;fillColor=#E8F1FF;" parent="edge16" vertex="1" connectable="0">
          <mxGeometry x="767" y="3887" as="geometry" />
        </mxCell>
        <mxCell id="edge4" value="" style="html=1;rounded=1;edgeStyle=orthogonalEdgeStyle;dashed=0;startArrow=none;endArrow=block;endSize=12;strokeColor=#7C8EBA;exitX=0.500;exitY=1.001;exitDx=0;exitDy=0;entryX=0.500;entryY=0.000;entryDx=0;entryDy=0;fillColor=#E8F1FF;" parent="1" source="node5" target="node1" edge="1">
          <mxGeometry width="50" height="50" relative="1" as="geometry">
            <Array as="points" />
          </mxGeometry>
        </mxCell>
        <mxCell id="edge0" value="" style="html=1;rounded=1;edgeStyle=orthogonalEdgeStyle;dashed=0;startArrow=none;endArrow=block;endSize=12;strokeColor=#7C8EBA;exitX=0.500;exitY=1.001;exitDx=0;exitDy=0;entryX=0.500;entryY=0.000;entryDx=0;entryDy=0;fillColor=#E8F1FF;" parent="1" source="node13" target="node1" edge="1">
          <mxGeometry width="50" height="50" relative="1" as="geometry">
            <Array as="points">
              <mxPoint x="967" y="3670" />
              <mxPoint x="767" y="3670" />
            </Array>
          </mxGeometry>
        </mxCell>
        <mxCell id="edge27" value="" style="html=1;rounded=1;edgeStyle=orthogonalEdgeStyle;dashed=0;startArrow=diamondThinstartSize=12;endArrow=openThin;endSize=12;strokeColor=#7C8EBA;exitX=0.500;exitY=1.000;exitDx=0;exitDy=0;entryX=0.750;entryY=1.000;entryDx=0;entryDy=0;fillColor=#E8F1FF;" parent="1" source="node18" target="node4" edge="1">
          <mxGeometry width="50" height="50" relative="1" as="geometry">
            <Array as="points">
              <mxPoint x="1267" y="3010" />
              <mxPoint x="1327" y="3010" />
              <mxPoint x="1327" y="3910" />
              <mxPoint x="1287" y="3910" />
              <mxPoint x="1287" y="4270" />
              <mxPoint x="608" y="4270" />
            </Array>
          </mxGeometry>
        </mxCell>
        <mxCell id="label162" value="1" style="edgeLabel;resizable=0;html=1;align=left;verticalAlign=top;strokeColor=#7C8EBA;fillColor=#E8F1FF;" parent="edge27" vertex="1" connectable="0">
          <mxGeometry x="1256" y="2749" as="geometry" />
        </mxCell>
        <mxCell id="label166" value="*" style="edgeLabel;resizable=0;html=1;align=left;verticalAlign=top;strokeColor=#7C8EBA;fillColor=#E8F1FF;" parent="edge27" vertex="1" connectable="0">
          <mxGeometry x="773" y="4250" as="geometry" />
        </mxCell>
        <mxCell id="label167" value="pozo" style="edgeLabel;resizable=0;html=1;align=left;verticalAlign=top;strokeColor=#7C8EBA;fillColor=#E8F1FF;" parent="edge27" vertex="1" connectable="0">
          <mxGeometry x="608" y="4260" as="geometry" />
        </mxCell>
        <mxCell id="edge12" value="" style="html=1;rounded=1;edgeStyle=orthogonalEdgeStyle;dashed=0;startArrow=diamondThinstartSize=12;endArrow=openThin;endSize=12;strokeColor=#7C8EBA;exitX=0.250;exitY=1.000;exitDx=0;exitDy=0;entryX=0.250;entryY=0.000;entryDx=0;entryDy=0;fillColor=#E8F1FF;" parent="1" source="node14" target="node10" edge="1">
          <mxGeometry width="50" height="50" relative="1" as="geometry">
            <Array as="points">
              <mxPoint x="1570" y="2990" />
              <mxPoint x="1047" y="2990" />
              <mxPoint x="1047" y="3070" />
              <mxPoint x="1087" y="3070" />
            </Array>
          </mxGeometry>
        </mxCell>
        <mxCell id="label72" value="1" style="edgeLabel;resizable=0;html=1;align=left;verticalAlign=top;strokeColor=#7C8EBA;fillColor=#E8F1FF;" parent="edge12" vertex="1" connectable="0">
          <mxGeometry x="1390" y="2970" as="geometry" />
        </mxCell>
        <mxCell id="label76" value="*" style="edgeLabel;resizable=0;html=1;align=left;verticalAlign=top;strokeColor=#7C8EBA;fillColor=#E8F1FF;" parent="edge12" vertex="1" connectable="0">
          <mxGeometry x="1130" y="2970" as="geometry" />
        </mxCell>
        <mxCell id="label77" value="jugadores" style="edgeLabel;resizable=0;html=1;align=left;verticalAlign=top;strokeColor=#7C8EBA;fillColor=#E8F1FF;" parent="edge12" vertex="1" connectable="0">
          <mxGeometry x="1191" y="2990" as="geometry" />
        </mxCell>
        <mxCell id="edge3" value="" style="html=1;rounded=1;edgeStyle=orthogonalEdgeStyle;dashed=1;startArrow=none;endArrow=block;endSize=12;strokeColor=#7C8EBA;exitX=0.750;exitY=1.000;exitDx=0;exitDy=0;entryX=0.500;entryY=0.000;entryDx=0;entryDy=0;fillColor=#E8F1FF;" parent="1" source="node14" target="node7" edge="1">
          <mxGeometry width="50" height="50" relative="1" as="geometry">
            <Array as="points">
              <mxPoint x="1765" y="2970" />
              <mxPoint x="1667" y="2970" />
            </Array>
          </mxGeometry>
        </mxCell>
      </root>
    </mxGraphModel>
  </diagram>
</mxfile>
